<svg width="13" height="13" viewBox="0 0 13 13" fill="none" xmlns="http://www.w3.org/2000/svg">
<path d="M3.98907 4.10104C3.9425 4.25671 3.98319 4.42347 4.09601 4.53629L5.85278 6.29306L2.38401 9.76182C2.20886 9.93698 2.20556 10.218 2.37665 10.3891C2.54774 10.5602 2.82875 10.5569 3.0039 10.3817L6.47266 6.91295L8.22943 8.66971C8.34266 8.78294 8.50943 8.82363 8.66468 8.77666C8.82076 8.73051 8.94057 8.60325 8.97838 8.4456L10.2692 3.02139C10.3044 2.87213 10.2614 2.71752 10.1548 2.6109C10.0482 2.50428 9.89359 2.46135 9.74433 2.49655L4.32012 3.78734C4.2371 3.80755 4.16218 3.85024 4.10337 3.90905C4.05091 3.96151 4.01125 4.02761 3.98907 4.10104Z" fill="white"/>
</svg>
